<?xml version="1.0" encoding="UTF-8" standalone="no"?>
<!-- Created with Inkscape (http://www.inkscape.org/) -->

<svg
   width="1024"
   height="1024"
   viewBox="0 0 270.93333 270.93334"
   version="1.1"
   id="svg5"
   inkscape:version="1.1.2 (0a00cf5339, 2022-02-04)"
   sodipodi:docname="leaves1.svg"
   inkscape:export-filename="/home/micah/Documents/Hack Club Arcade/Planet-Earth-Stranded/Assets/Environment/Textures/Trees/Leaves/leaves1.png"
   inkscape:export-xdpi="96"
   inkscape:export-ydpi="96"
   xmlns:inkscape="http://www.inkscape.org/namespaces/inkscape"
   xmlns:sodipodi="http://sodipodi.sourceforge.net/DTD/sodipodi-0.dtd"
   xmlns="http://www.w3.org/2000/svg"
   xmlns:svg="http://www.w3.org/2000/svg">
  <sodipodi:namedview
     id="namedview7"
     pagecolor="#000000"
     bordercolor="#666666"
     borderopacity="1.0"
     inkscape:pageshadow="2"
     inkscape:pageopacity="0"
     inkscape:pagecheckerboard="0"
     inkscape:document-units="mm"
     showgrid="false"
     units="px"
     width="1024px"
     inkscape:zoom="0.69931958"
     inkscape:cx="405.39405"
     inkscape:cy="495.48162"
     inkscape:window-width="1920"
     inkscape:window-height="1012"
     inkscape:window-x="0"
     inkscape:window-y="0"
     inkscape:window-maximized="1"
     inkscape:current-layer="layer1" />
  <defs
     id="defs2" />
  <g
     inkscape:label="Layer 1"
     inkscape:groupmode="layer"
     id="layer1">
    <path
       style="fill:#ffffff;stroke:#000000;stroke-width:0.377953"
       id="path950"
       sodipodi:type="arc"
       sodipodi:cx="70.002464"
       sodipodi:cy="90.962662"
       sodipodi:rx="11.311145"
       sodipodi:ry="30.943808"
       sodipodi:start="0.027836256"
       sodipodi:end="6.1871747"
       sodipodi:open="true"
       sodipodi:arc-type="arc"
       d="M 81.309227,91.82391 A 11.311145,30.943808 0 0 1 70.037817,121.90632 11.311145,30.943808 0 0 1 58.69789,92.017244 11.311145,30.943808 0 0 1 69.267206,60.084298 11.311145,30.943808 0 0 1 81.261516,87.996292" />
    <path
       style="fill:#ffffff;stroke:#000000;stroke-width:0.377953"
       id="path1032"
       sodipodi:type="arc"
       sodipodi:cx="151.96658"
       sodipodi:cy="34.342678"
       sodipodi:rx="11.311145"
       sodipodi:ry="30.943808"
       sodipodi:start="0.027836256"
       sodipodi:end="6.1871747"
       sodipodi:open="true"
       sodipodi:arc-type="arc"
       d="M 163.27335,35.203927 A 11.311145,30.943808 0 0 1 152.00194,65.286335 11.311145,30.943808 0 0 1 140.66201,35.397261 11.311145,30.943808 0 0 1 151.23132,3.4643146 11.311145,30.943808 0 0 1 163.22563,31.376307"
       transform="rotate(41.445714)" />
    <path
       style="fill:#ffffff;stroke:#000000;stroke-width:0.377953"
       id="path1136"
       sodipodi:type="arc"
       sodipodi:cx="-60.779324"
       sodipodi:cy="145.21846"
       sodipodi:rx="12.930787"
       sodipodi:ry="34.611458"
       sodipodi:start="0.027836256"
       sodipodi:end="6.1871747"
       sodipodi:open="true"
       sodipodi:arc-type="arc"
       d="m -47.853546,146.18179 a 12.930787,34.611458 0 0 1 -12.885363,33.64796 12.930787,34.611458 0 0 1 -12.96369,-33.43171 12.930787,34.611458 0 0 1 12.082735,-35.71784 12.930787,34.611458 0 0 1 13.711775,31.2203"
       transform="rotate(-40.232824)" />
    <path
       style="fill:#ffffff;stroke:#000000;stroke-width:0.377953"
       id="path1138"
       sodipodi:type="arc"
       sodipodi:cx="93.726242"
       sodipodi:cy="178.0002"
       sodipodi:rx="11.055797"
       sodipodi:ry="30.163742"
       sodipodi:start="0.027836256"
       sodipodi:end="6.1871747"
       sodipodi:open="true"
       sodipodi:arc-type="arc"
       d="M 104.77776,178.83974 A 11.055797,30.163742 0 0 1 93.760796,208.16379 11.055797,30.163742 0 0 1 82.676868,179.0282 11.055797,30.163742 0 0 1 93.007582,147.90025 11.055797,30.163742 0 0 1 104.73112,175.10861"
       transform="matrix(0.99994631,0.01036265,-0.03199877,0.99948791,0,0)" />
    <path
       style="fill:#ffffff;stroke:#000000;stroke-width:0.377953"
       id="path1324"
       sodipodi:type="arc"
       sodipodi:cx="65.91758"
       sodipodi:cy="80.19323"
       sodipodi:rx="11.311145"
       sodipodi:ry="30.943808"
       sodipodi:start="0.027836256"
       sodipodi:end="6.1871747"
       sodipodi:open="true"
       sodipodi:arc-type="arc"
       d="M 77.224343,81.054478 A 11.311145,30.943808 0 0 1 65.952932,111.13689 11.311145,30.943808 0 0 1 54.613006,81.247812 11.311145,30.943808 0 0 1 65.182321,49.314866 11.311145,30.943808 0 0 1 77.176631,77.226858"
       transform="rotate(-24.617424)" />
    <path
       style="fill:#ffffff;stroke:#000000;stroke-width:0.377953"
       id="path1326"
       sodipodi:type="arc"
       sodipodi:cx="137.00317"
       sodipodi:cy="8.3879242"
       sodipodi:rx="11.311145"
       sodipodi:ry="30.943808"
       sodipodi:start="0.027836256"
       sodipodi:end="6.1871747"
       sodipodi:open="true"
       sodipodi:arc-type="arc"
       d="M 148.30994,9.2491727 A 11.311145,30.943808 0 0 1 137.03853,39.331581 11.311145,30.943808 0 0 1 125.6986,9.4425069 11.311145,30.943808 0 0 1 136.26792,-22.490439 11.311145,30.943808 0 0 1 148.26223,5.4215527"
       transform="rotate(16.82829)" />
    <path
       style="fill:#ffffff;stroke:#000000;stroke-width:0.377953"
       id="path1328"
       sodipodi:type="arc"
       sodipodi:cx="-35.698898"
       sodipodi:cy="136.752"
       sodipodi:rx="9.8913136"
       sodipodi:ry="26.475788"
       sodipodi:start="0.027836256"
       sodipodi:end="6.1871747"
       sodipodi:open="true"
       sodipodi:arc-type="arc"
       d="m -25.811417,137.48889 a 9.8913136,26.475788 0 0 1 -9.856566,25.73877 9.8913136,26.475788 0 0 1 -9.916483,-25.57335 9.8913136,26.475788 0 0 1 9.242602,-27.3221 9.8913136,26.475788 0 0 1 10.488725,23.88174"
       transform="rotate(-64.850248)" />
    <path
       style="fill:#ffffff;stroke:#000000;stroke-width:0.377953"
       id="path1330"
       sodipodi:type="arc"
       sodipodi:cx="98.999489"
       sodipodi:cy="142.14832"
       sodipodi:rx="9.5725288"
       sodipodi:ry="26.116915"
       sodipodi:start="0.027836256"
       sodipodi:end="6.1871747"
       sodipodi:open="true"
       sodipodi:arc-type="arc"
       d="m 108.56831,142.87522 a 9.5725288,26.116915 0 0 1 -9.538903,25.38988 9.5725288,26.116915 0 0 1 -9.596886,-25.22671 9.5725288,26.116915 0 0 1 8.944724,-26.95175 9.5725288,26.116915 0 0 1 10.150685,23.55803"
       transform="matrix(0.9133773,-0.40711412,0.38725357,0.92197325,0,0)" />
    <path
       style="fill:#ffffff;stroke:#000000;stroke-width:0.377953"
       id="path1332"
       sodipodi:type="arc"
       sodipodi:cx="-4.5467381"
       sodipodi:cy="-274.12704"
       sodipodi:rx="11.311145"
       sodipodi:ry="30.943808"
       sodipodi:start="0.027836256"
       sodipodi:end="6.1871747"
       sodipodi:open="true"
       sodipodi:arc-type="arc"
       d="m 6.7600247,-273.2658 a 11.311145,30.943808 0 0 1 -11.2714104,30.08241 11.311145,30.943808 0 0 1 -11.3399263,-29.88907 11.311145,30.943808 0 0 1 10.5693152,-31.93295 11.311145,30.943808 0 0 1 11.9943102,27.91199"
       transform="rotate(134.83708)" />
    <path
       style="fill:#ffffff;stroke:#000000;stroke-width:0.377953"
       id="path1334"
       sodipodi:type="arc"
       sodipodi:cx="-144.28249"
       sodipodi:cy="-181.01167"
       sodipodi:rx="8.8912678"
       sodipodi:ry="24.323769"
       sodipodi:start="0.027836256"
       sodipodi:end="6.1871747"
       sodipodi:open="true"
       sodipodi:arc-type="arc"
       d="m -135.39466,-180.33468 a 8.8912678,24.323769 0 0 1 -8.86004,23.64666 8.8912678,24.323769 0 0 1 -8.91389,-23.49468 8.8912678,24.323769 0 0 1 8.30814,-25.1013 8.8912678,24.323769 0 0 1 9.42828,21.94057"
       transform="rotate(176.2828)" />
    <path
       style="fill:#ffffff;stroke:#000000;stroke-width:0.377953"
       id="path1336"
       sodipodi:type="arc"
       sodipodi:cx="117.45069"
       sodipodi:cy="-177.63733"
       sodipodi:rx="12.930787"
       sodipodi:ry="34.611458"
       sodipodi:start="0.027836256"
       sodipodi:end="6.1871747"
       sodipodi:open="true"
       sodipodi:arc-type="arc"
       d="m 130.37647,-176.674 a 12.930787,34.611458 0 0 1 -12.88536,33.64796 12.930787,34.611458 0 0 1 -12.96369,-33.43171 12.930787,34.611458 0 0 1 12.08273,-35.71784 12.930787,34.611458 0 0 1 13.71178,31.2203"
       transform="rotate(94.60426)" />
    <path
       style="fill:#ffffff;stroke:#000000;stroke-width:0.377953"
       id="path1338"
       sodipodi:type="arc"
       sodipodi:cx="10.499913"
       sodipodi:cy="-191.96864"
       sodipodi:rx="9.8556499"
       sodipodi:ry="26.889359"
       sodipodi:start="0.027836256"
       sodipodi:end="6.1871747"
       sodipodi:open="true"
       sodipodi:arc-type="arc"
       d="m 20.351745,-191.22024 a 9.8556499,26.889359 0 0 1 -9.821028,26.14082 9.8556499,26.889359 0 0 1 -9.88072847,-25.97282 9.8556499,26.889359 0 0 1 9.20927757,-27.74889 9.8556499,26.889359 0 0 1 10.4509069,24.25479"
       transform="matrix(-0.71240378,0.70176981,-0.68618926,-0.72742305,0,0)" />
    <path
       style="fill:#ffffff;stroke:#000000;stroke-width:0.377953"
       id="path1340"
       sodipodi:type="arc"
       sodipodi:cx="201.08539"
       sodipodi:cy="-98.581985"
       sodipodi:rx="11.311145"
       sodipodi:ry="30.943808"
       sodipodi:start="0.027836256"
       sodipodi:end="6.1871747"
       sodipodi:open="true"
       sodipodi:arc-type="arc"
       d="m 212.39215,-97.720737 a 11.311145,30.943808 0 0 1 -11.27141,30.082408 11.311145,30.943808 0 0 1 -11.33993,-29.889074 11.311145,30.943808 0 0 1 10.56932,-31.932947 11.311145,30.943808 0 0 1 11.99431,27.91199"
       transform="rotate(42.345052)"
       inkscape:export-filename="/home/micah/Documents/Hack Club Arcade/Planet-Earth-Stranded/Assets/Environment/Textures/Trees/Leaves/Leaves1.png"
       inkscape:export-xdpi="96"
       inkscape:export-ydpi="96" />
    <path
       style="fill:#ffffff;stroke:#000000;stroke-width:0.377953"
       id="path1342"
       sodipodi:type="arc"
       sodipodi:cx="125.07755"
       sodipodi:cy="-200.44894"
       sodipodi:rx="11.311145"
       sodipodi:ry="30.943808"
       sodipodi:start="0.027836256"
       sodipodi:end="6.1871747"
       sodipodi:open="true"
       sodipodi:arc-type="arc"
       d="m 136.38432,-199.5877 a 11.311145,30.943808 0 0 1 -11.27141,30.08241 11.311145,30.943808 0 0 1 -11.33993,-29.88907 11.311145,30.943808 0 0 1 10.56931,-31.93295 11.311145,30.943808 0 0 1 11.99431,27.91199"
       transform="rotate(83.790772)" />
    <path
       style="fill:#ffffff;stroke:#000000;stroke-width:0.377953"
       id="path1344"
       sodipodi:type="arc"
       sodipodi:cx="173.25838"
       sodipodi:cy="73.541183"
       sodipodi:rx="12.930787"
       sodipodi:ry="34.611458"
       sodipodi:start="0.027836256"
       sodipodi:end="6.1871747"
       sodipodi:open="true"
       sodipodi:arc-type="arc"
       d="M 186.18415,74.504512 A 12.930787,34.611458 0 0 1 173.29879,108.15247 12.930787,34.611458 0 0 1 160.3351,74.720762 12.930787,34.611458 0 0 1 172.41784,39.002927 12.930787,34.611458 0 0 1 186.12961,70.223219"
       transform="rotate(2.112232)" />
    <path
       style="fill:#ffffff;stroke:#000000;stroke-width:0.377953"
       id="path1346"
       sodipodi:type="arc"
       sodipodi:cx="36.369137"
       sodipodi:cy="-264.60001"
       sodipodi:rx="12.930787"
       sodipodi:ry="34.611458"
       sodipodi:start="0.027836256"
       sodipodi:end="6.1871747"
       sodipodi:open="true"
       sodipodi:arc-type="arc"
       d="m 49.294914,-263.63668 a 12.930787,34.611458 0 0 1 -12.885363,33.64796 12.930787,34.611458 0 0 1 -12.96369,-33.43171 12.930787,34.611458 0 0 1 12.082736,-35.71783 12.930787,34.611458 0 0 1 13.711774,31.22029"
       transform="rotate(136.21861)" />
    <path
       style="fill:#ffffff;stroke:#000000;stroke-width:0.377953"
       id="path1348"
       sodipodi:type="arc"
       sodipodi:cx="-110.71616"
       sodipodi:cy="-200.49649"
       sodipodi:rx="12.809309"
       sodipodi:ry="34.947884"
       sodipodi:start="0.027836256"
       sodipodi:end="6.1871747"
       sodipodi:open="true"
       sodipodi:arc-type="arc"
       d="m -97.911817,-199.5238 a 12.809309,34.947884 0 0 1 -12.764313,33.97502 12.809309,34.947884 0 0 1 -12.8419,-33.75667 12.809309,34.947884 0 0 1 11.96922,-36.06501 12.809309,34.947884 0 0 1 13.582962,31.52375"
       transform="matrix(-0.99867049,0.05154851,-0.0299255,-0.99955213,0,0)" />
    <path
       style="fill:#ffffff;stroke:#000000;stroke-width:0.377953"
       id="path1350"
       sodipodi:type="arc"
       sodipodi:cx="-108.70975"
       sodipodi:cy="200.77795"
       sodipodi:rx="12.809309"
       sodipodi:ry="34.947884"
       sodipodi:start="0.027836256"
       sodipodi:end="6.1871747"
       sodipodi:open="true"
       sodipodi:arc-type="arc"
       d="m -95.905401,201.75065 a 12.809309,34.947884 0 0 1 -12.764309,33.97502 12.809309,34.947884 0 0 1 -12.84191,-33.75667 12.809309,34.947884 0 0 1 11.96923,-36.06502 12.809309,34.947884 0 0 1 13.582959,31.52376"
       transform="matrix(0.6676021,-0.74451825,0.72989719,0.68355694,0,0)" />
    <path
       style="fill:#ffffff;stroke:#000000;stroke-width:0.377953"
       id="path1352"
       sodipodi:type="arc"
       sodipodi:cx="-222.96985"
       sodipodi:cy="104.63297"
       sodipodi:rx="9.7528114"
       sodipodi:ry="27.902231"
       sodipodi:start="0.027836256"
       sodipodi:end="6.1871747"
       sodipodi:open="true"
       sodipodi:arc-type="arc"
       d="m -213.22082,105.40957 a 9.7528114,27.902231 0 0 1 -9.71855,27.1255 9.7528114,27.902231 0 0 1 -9.77762,-26.95117 9.7528114,27.902231 0 0 1 9.11318,-28.794147 9.7528114,27.902231 0 0 1 10.34186,25.168427"
       transform="matrix(-0.5018356,-0.86496302,0.90830377,-0.41831119,0,0)" />
  </g>
</svg>
