<?xml version="1.0" encoding="UTF-8" standalone="no"?>
<!-- Created with Inkscape (http://www.inkscape.org/) -->

<svg
   width="1024"
   height="1024"
   viewBox="0 0 270.93333 270.93334"
   version="1.1"
   id="svg5"
   inkscape:version="1.1.2 (0a00cf5339, 2022-02-04)"
   sodipodi:docname="pineleaves.svg"
   inkscape:export-filename="/home/micah/Documents/Hack Club Arcade/Planet-Earth-Stranded/Assets/Environment/Textures/Trees/Leaves/leaves1.png"
   inkscape:export-xdpi="96"
   inkscape:export-ydpi="96"
   xmlns:inkscape="http://www.inkscape.org/namespaces/inkscape"
   xmlns:sodipodi="http://sodipodi.sourceforge.net/DTD/sodipodi-0.dtd"
   xmlns="http://www.w3.org/2000/svg"
   xmlns:svg="http://www.w3.org/2000/svg">
  <sodipodi:namedview
     id="namedview7"
     pagecolor="#000000"
     bordercolor="#666666"
     borderopacity="1.0"
     inkscape:pageshadow="2"
     inkscape:pageopacity="0"
     inkscape:pagecheckerboard="0"
     inkscape:document-units="mm"
     showgrid="false"
     units="px"
     width="1024px"
     inkscape:zoom="0.71742951"
     inkscape:cx="455.09697"
     inkscape:cy="321.28592"
     inkscape:window-width="1920"
     inkscape:window-height="1012"
     inkscape:window-x="0"
     inkscape:window-y="0"
     inkscape:window-maximized="1"
     inkscape:current-layer="layer1" />
  <defs
     id="defs2" />
  <g
     inkscape:label="Layer 1"
     inkscape:groupmode="layer"
     id="layer1">
    <path
       style="fill:#ffffff;stroke:#000000;stroke-width:0.377953"
       id="path589"
       sodipodi:type="arc"
       sodipodi:cx="21.09988"
       sodipodi:cy="65.992073"
       sodipodi:rx="2.3110592"
       sodipodi:ry="37.578331"
       sodipodi:start="0.027836256"
       sodipodi:end="6.1871747"
       sodipodi:open="true"
       sodipodi:arc-type="arc"
       d="m 23.410044,67.037978 a 2.3110592,37.578331 0 0 1 -2.302941,36.532242 2.3110592,37.578331 0 0 1 -2.316939,-36.297457 2.3110592,37.578331 0 0 1 2.15949,-38.779545 2.3110592,37.578331 0 0 1 2.450642,33.896479"
       transform="rotate(-21.003154)"
       inkscape:export-filename="/home/micah/Documents/Hack Club Arcade/Planet-Earth-Stranded/Assets/Environment/Textures/Trees/Leaves/pineleaves.png"
       inkscape:export-xdpi="116.99402"
       inkscape:export-ydpi="116.99402" />
    <path
       style="fill:#ffffff;stroke:#000000;stroke-width:0.377953"
       id="path671"
       sodipodi:type="arc"
       sodipodi:cx="59.384384"
       sodipodi:cy="49.573883"
       sodipodi:rx="2.3110592"
       sodipodi:ry="37.578331"
       sodipodi:start="0.027836256"
       sodipodi:end="6.1871747"
       sodipodi:open="true"
       sodipodi:arc-type="arc"
       d="M 61.694548,50.619788 A 2.3110592,37.578331 0 0 1 59.391607,87.152031 2.3110592,37.578331 0 0 1 57.074667,50.854574 2.3110592,37.578331 0 0 1 59.234158,12.075028 2.3110592,37.578331 0 0 1 61.6848,45.971505"
       transform="rotate(1.6177013)"
       inkscape:export-filename="/home/micah/Documents/Hack Club Arcade/Planet-Earth-Stranded/Assets/Environment/Textures/Trees/Leaves/pineleaves.png"
       inkscape:export-xdpi="116.99402"
       inkscape:export-ydpi="116.99402" />
    <path
       style="fill:#ffffff;stroke:#000000;stroke-width:0.377953"
       id="path673"
       sodipodi:type="arc"
       sodipodi:cx="30.483715"
       sodipodi:cy="-123.53098"
       sodipodi:rx="2.3110592"
       sodipodi:ry="37.578331"
       sodipodi:start="0.027836256"
       sodipodi:end="6.1871747"
       sodipodi:open="true"
       sodipodi:arc-type="arc"
       d="m 32.793879,-122.48508 a 2.3110592,37.578331 0 0 1 -2.302941,36.532244 2.3110592,37.578331 0 0 1 -2.31694,-36.297454 2.3110592,37.578331 0 0 1 2.159491,-38.77955 2.3110592,37.578331 0 0 1 2.450642,33.89648"
       transform="rotate(135.45285)"
       inkscape:export-filename="/home/micah/Documents/Hack Club Arcade/Planet-Earth-Stranded/Assets/Environment/Textures/Trees/Leaves/pineleaves.png"
       inkscape:export-xdpi="116.99402"
       inkscape:export-ydpi="116.99402" />
    <path
       style="fill:#ffffff;stroke:#000000;stroke-width:0.377953"
       id="path675"
       sodipodi:type="arc"
       sodipodi:cx="-4.8501859"
       sodipodi:cy="-128.97853"
       sodipodi:rx="2.3110592"
       sodipodi:ry="37.578331"
       sodipodi:start="0.027836256"
       sodipodi:end="6.1871747"
       sodipodi:open="true"
       sodipodi:arc-type="arc"
       d="m -2.5400219,-127.93263 a 2.3110592,37.578331 0 0 1 -2.3029409,36.532247 2.3110592,37.578331 0 0 1 -2.3169398,-36.297457 2.3110592,37.578331 0 0 1 2.1594909,-38.77955 2.3110592,37.578331 0 0 1 2.4506415,33.89648"
       transform="rotate(158.07371)"
       inkscape:export-filename="/home/micah/Documents/Hack Club Arcade/Planet-Earth-Stranded/Assets/Environment/Textures/Trees/Leaves/pineleaves.png"
       inkscape:export-xdpi="116.99402"
       inkscape:export-ydpi="116.99402" />
    <path
       style="fill:#ffffff;stroke:#000000;stroke-width:0.377953"
       id="path677"
       sodipodi:type="arc"
       sodipodi:cx="114.13676"
       sodipodi:cy="-22.995958"
       sodipodi:rx="2.3110592"
       sodipodi:ry="37.578331"
       sodipodi:start="0.027836256"
       sodipodi:end="6.1871747"
       sodipodi:open="true"
       sodipodi:arc-type="arc"
       d="m 116.44692,-21.950053 a 2.3110592,37.578331 0 0 1 -2.30294,36.532242 2.3110592,37.578331 0 0 1 -2.31694,-36.297456 2.3110592,37.578331 0 0 1 2.15949,-38.779547 2.3110592,37.578331 0 0 1 2.45064,33.896478"
       transform="rotate(52.284315)"
       inkscape:export-filename="/home/micah/Documents/Hack Club Arcade/Planet-Earth-Stranded/Assets/Environment/Textures/Trees/Leaves/pineleaves.png"
       inkscape:export-xdpi="116.99402"
       inkscape:export-ydpi="116.99402" />
    <path
       style="fill:#ffffff;stroke:#000000;stroke-width:0.377953"
       id="path679"
       sodipodi:type="arc"
       sodipodi:cx="111.03638"
       sodipodi:cy="-68.353226"
       sodipodi:rx="2.3110592"
       sodipodi:ry="37.578331"
       sodipodi:start="0.027836256"
       sodipodi:end="6.1871747"
       sodipodi:open="true"
       sodipodi:arc-type="arc"
       d="m 113.34654,-67.307321 a 2.3110592,37.578331 0 0 1 -2.30294,36.532243 2.3110592,37.578331 0 0 1 -2.31694,-36.297457 2.3110592,37.578331 0 0 1 2.15949,-38.779545 2.3110592,37.578331 0 0 1 2.45064,33.896476"
       transform="rotate(74.905175)"
       inkscape:export-filename="/home/micah/Documents/Hack Club Arcade/Planet-Earth-Stranded/Assets/Environment/Textures/Trees/Leaves/pineleaves.png"
       inkscape:export-xdpi="116.99402"
       inkscape:export-ydpi="116.99402" />
    <path
       style="fill:#ffffff;stroke:#000000;stroke-width:0.377953"
       id="path681"
       sodipodi:type="arc"
       sodipodi:cx="-31.52673"
       sodipodi:cy="137.45235"
       sodipodi:rx="2.3110592"
       sodipodi:ry="37.578331"
       sodipodi:start="0.027836256"
       sodipodi:end="6.1871747"
       sodipodi:open="true"
       sodipodi:arc-type="arc"
       d="m -29.216566,138.49825 a 2.3110592,37.578331 0 0 1 -2.30294,36.53224 2.3110592,37.578331 0 0 1 -2.31694,-36.29745 2.3110592,37.578331 0 0 1 2.159491,-38.779549 2.3110592,37.578331 0 0 1 2.450641,33.896479"
       transform="rotate(-79.954343)"
       inkscape:export-filename="/home/micah/Documents/Hack Club Arcade/Planet-Earth-Stranded/Assets/Environment/Textures/Trees/Leaves/pineleaves.png"
       inkscape:export-xdpi="116.99402"
       inkscape:export-ydpi="116.99402" />
    <path
       style="fill:#ffffff;stroke:#000000;stroke-width:0.377953"
       id="path683"
       sodipodi:type="arc"
       sodipodi:cx="38.292198"
       sodipodi:cy="135.77858"
       sodipodi:rx="2.3110592"
       sodipodi:ry="37.578331"
       sodipodi:start="0.027836256"
       sodipodi:end="6.1871747"
       sodipodi:open="true"
       sodipodi:arc-type="arc"
       d="m 40.602362,136.82448 a 2.3110592,37.578331 0 0 1 -2.302941,36.53225 2.3110592,37.578331 0 0 1 -2.31694,-36.29746 2.3110592,37.578331 0 0 1 2.159491,-38.779546 2.3110592,37.578331 0 0 1 2.450642,33.896476"
       transform="rotate(-57.333483)"
       inkscape:export-filename="/home/micah/Documents/Hack Club Arcade/Planet-Earth-Stranded/Assets/Environment/Textures/Trees/Leaves/pineleaves.png"
       inkscape:export-xdpi="116.99402"
       inkscape:export-ydpi="116.99402" />
    <path
       style="fill:#ffffff;stroke:#000000;stroke-width:0.377953"
       id="path685"
       sodipodi:type="arc"
       sodipodi:cx="-182.2552"
       sodipodi:cy="-43.637783"
       sodipodi:rx="2.3110592"
       sodipodi:ry="37.578331"
       sodipodi:start="0.027836256"
       sodipodi:end="6.1871747"
       sodipodi:open="true"
       sodipodi:arc-type="arc"
       d="m -179.94504,-42.591878 a 2.3110592,37.578331 0 0 1 -2.30294,36.5322424 2.3110592,37.578331 0 0 1 -2.31694,-36.2974564 2.3110592,37.578331 0 0 1 2.15949,-38.779546 2.3110592,37.578331 0 0 1 2.45064,33.896477"
       transform="rotate(-161.5308)"
       inkscape:export-filename="/home/micah/Documents/Hack Club Arcade/Planet-Earth-Stranded/Assets/Environment/Textures/Trees/Leaves/pineleaves.png"
       inkscape:export-xdpi="116.99402"
       inkscape:export-ydpi="116.99402" />
    <path
       style="fill:#ffffff;stroke:#000000;stroke-width:0.377953"
       id="path687"
       sodipodi:type="arc"
       sodipodi:cx="-170.49373"
       sodipodi:cy="26.594584"
       sodipodi:rx="2.3110592"
       sodipodi:ry="37.578331"
       sodipodi:start="0.027836256"
       sodipodi:end="6.1871747"
       sodipodi:open="true"
       sodipodi:arc-type="arc"
       d="m -168.18356,27.640488 a 2.3110592,37.578331 0 0 1 -2.30295,36.532243 2.3110592,37.578331 0 0 1 -2.31694,-36.297456 2.3110592,37.578331 0 0 1 2.1595,-38.779547 2.3110592,37.578331 0 0 1 2.45064,33.896478"
       transform="rotate(-138.90994)"
       inkscape:export-filename="/home/micah/Documents/Hack Club Arcade/Planet-Earth-Stranded/Assets/Environment/Textures/Trees/Leaves/pineleaves.png"
       inkscape:export-xdpi="116.99402"
       inkscape:export-ydpi="116.99402" />
    <path
       style="fill:#ffffff;stroke:#000000;stroke-width:0.377953"
       id="path689"
       sodipodi:type="arc"
       sodipodi:cx="-186.18764"
       sodipodi:cy="57.377331"
       sodipodi:rx="2.3110592"
       sodipodi:ry="37.578331"
       sodipodi:start="0.027836256"
       sodipodi:end="6.1871747"
       sodipodi:open="true"
       sodipodi:arc-type="arc"
       d="m -183.87747,58.423236 a 2.3110592,37.578331 0 0 1 -2.30294,36.532242 2.3110592,37.578331 0 0 1 -2.31694,-36.297456 2.3110592,37.578331 0 0 1 2.15949,-38.779547 2.3110592,37.578331 0 0 1 2.45064,33.896478"
       transform="rotate(-109.42772)"
       inkscape:export-filename="/home/micah/Documents/Hack Club Arcade/Planet-Earth-Stranded/Assets/Environment/Textures/Trees/Leaves/pineleaves.png"
       inkscape:export-xdpi="116.99402"
       inkscape:export-ydpi="116.99402" />
    <path
       style="fill:#ffffff;stroke:#000000;stroke-width:0.377953"
       id="path691"
       sodipodi:type="arc"
       sodipodi:cx="-135.27005"
       sodipodi:cy="121.35118"
       sodipodi:rx="2.3110592"
       sodipodi:ry="37.578331"
       sodipodi:start="0.027836256"
       sodipodi:end="6.1871747"
       sodipodi:open="true"
       sodipodi:arc-type="arc"
       d="m -132.95989,122.39709 a 2.3110592,37.578331 0 0 1 -2.30294,36.53224 2.3110592,37.578331 0 0 1 -2.31694,-36.29746 2.3110592,37.578331 0 0 1 2.15949,-38.779544 2.3110592,37.578331 0 0 1 2.45065,33.896474"
       transform="rotate(-86.806863)"
       inkscape:export-filename="/home/micah/Documents/Hack Club Arcade/Planet-Earth-Stranded/Assets/Environment/Textures/Trees/Leaves/pineleaves.png"
       inkscape:export-xdpi="116.99402"
       inkscape:export-ydpi="116.99402" />
    <path
       style="fill:#ffffff;stroke:#000000;stroke-width:0.377953"
       id="path693"
       sodipodi:type="arc"
       sodipodi:cx="91.090446"
       sodipodi:cy="-208.08206"
       sodipodi:rx="2.3110592"
       sodipodi:ry="37.578331"
       sodipodi:start="0.027836256"
       sodipodi:end="6.1871747"
       sodipodi:open="true"
       sodipodi:arc-type="arc"
       d="m 93.40061,-207.03616 a 2.3110592,37.578331 0 0 1 -2.30294,36.53225 2.3110592,37.578331 0 0 1 -2.31694,-36.29746 2.3110592,37.578331 0 0 1 2.159491,-38.77955 2.3110592,37.578331 0 0 1 2.450641,33.89648"
       transform="rotate(98.391469)"
       inkscape:export-filename="/home/micah/Documents/Hack Club Arcade/Planet-Earth-Stranded/Assets/Environment/Textures/Trees/Leaves/pineleaves.png"
       inkscape:export-xdpi="116.99402"
       inkscape:export-ydpi="116.99402" />
    <path
       style="fill:#ffffff;stroke:#000000;stroke-width:0.377953"
       id="path695"
       sodipodi:type="arc"
       sodipodi:cx="18.573099"
       sodipodi:cy="-230.33635"
       sodipodi:rx="2.3110592"
       sodipodi:ry="37.578331"
       sodipodi:start="0.027836256"
       sodipodi:end="6.1871747"
       sodipodi:open="true"
       sodipodi:arc-type="arc"
       d="m 20.883263,-229.29044 a 2.3110592,37.578331 0 0 1 -2.302941,36.53224 2.3110592,37.578331 0 0 1 -2.31694,-36.29746 2.3110592,37.578331 0 0 1 2.159491,-38.77954 2.3110592,37.578331 0 0 1 2.450642,33.89647"
       transform="rotate(121.01233)"
       inkscape:export-filename="/home/micah/Documents/Hack Club Arcade/Planet-Earth-Stranded/Assets/Environment/Textures/Trees/Leaves/pineleaves.png"
       inkscape:export-xdpi="116.99402"
       inkscape:export-ydpi="116.99402" />
    <path
       style="fill:#ffffff;stroke:#000000;stroke-width:0.377953"
       id="path697"
       sodipodi:type="arc"
       sodipodi:cx="202.85037"
       sodipodi:cy="-37.202152"
       sodipodi:rx="2.3110592"
       sodipodi:ry="37.578331"
       sodipodi:start="0.027836256"
       sodipodi:end="6.1871747"
       sodipodi:open="true"
       sodipodi:arc-type="arc"
       d="m 205.16054,-36.156247 a 2.3110592,37.578331 0 0 1 -2.30294,36.5322422 2.3110592,37.578331 0 0 1 -2.31694,-36.2974562 2.3110592,37.578331 0 0 1 2.15949,-38.779547 2.3110592,37.578331 0 0 1 2.45064,33.896478"
       transform="rotate(34.844271)"
       inkscape:export-filename="/home/micah/Documents/Hack Club Arcade/Planet-Earth-Stranded/Assets/Environment/Textures/Trees/Leaves/pineleaves.png"
       inkscape:export-xdpi="116.99402"
       inkscape:export-ydpi="116.99402" />
    <path
       style="fill:#ffffff;stroke:#000000;stroke-width:0.377953"
       id="path699"
       sodipodi:type="arc"
       sodipodi:cx="187.46114"
       sodipodi:cy="-115.58858"
       sodipodi:rx="2.3110592"
       sodipodi:ry="37.578331"
       sodipodi:start="0.027836256"
       sodipodi:end="6.1871747"
       sodipodi:open="true"
       sodipodi:arc-type="arc"
       d="m 189.7713,-114.54267 a 2.3110592,37.578331 0 0 1 -2.30294,36.53224 2.3110592,37.578331 0 0 1 -2.31694,-36.29746 2.3110592,37.578331 0 0 1 2.15949,-38.77954 2.3110592,37.578331 0 0 1 2.45064,33.89647"
       transform="rotate(57.465132)"
       inkscape:export-filename="/home/micah/Documents/Hack Club Arcade/Planet-Earth-Stranded/Assets/Environment/Textures/Trees/Leaves/pineleaves.png"
       inkscape:export-xdpi="116.99402"
       inkscape:export-ydpi="116.99402" />
    <path
       style="fill:#ffffff;stroke:#000000;stroke-width:0.377953"
       id="path701"
       sodipodi:type="arc"
       sodipodi:cx="-137.19945"
       sodipodi:cy="-77.650513"
       sodipodi:rx="2.3110592"
       sodipodi:ry="37.578331"
       sodipodi:start="0.027836256"
       sodipodi:end="6.1871747"
       sodipodi:open="true"
       sodipodi:arc-type="arc"
       d="m -134.88928,-76.604608 a 2.3110592,37.578331 0 0 1 -2.30294,36.532243 2.3110592,37.578331 0 0 1 -2.31694,-36.297457 2.3110592,37.578331 0 0 1 2.15949,-38.779548 2.3110592,37.578331 0 0 1 2.45064,33.896479"
       transform="rotate(-165.18603)"
       inkscape:export-filename="/home/micah/Documents/Hack Club Arcade/Planet-Earth-Stranded/Assets/Environment/Textures/Trees/Leaves/pineleaves.png"
       inkscape:export-xdpi="116.99402"
       inkscape:export-ydpi="116.99402" />
    <path
       style="fill:#ffffff;stroke:#000000;stroke-width:0.377953"
       id="path703"
       sodipodi:type="arc"
       sodipodi:cx="-141.98643"
       sodipodi:cy="-22.131409"
       sodipodi:rx="2.3110592"
       sodipodi:ry="37.578331"
       sodipodi:start="0.027836256"
       sodipodi:end="6.1871747"
       sodipodi:open="true"
       sodipodi:arc-type="arc"
       d="m -139.67627,-21.085504 a 2.3110592,37.578331 0 0 1 -2.30294,36.532243 2.3110592,37.578331 0 0 1 -2.31694,-36.297457 2.3110592,37.578331 0 0 1 2.15949,-38.779546 2.3110592,37.578331 0 0 1 2.45064,33.896477"
       transform="rotate(-142.56517)"
       inkscape:export-filename="/home/micah/Documents/Hack Club Arcade/Planet-Earth-Stranded/Assets/Environment/Textures/Trees/Leaves/pineleaves.png"
       inkscape:export-xdpi="116.99402"
       inkscape:export-ydpi="116.99402" />
    <path
       style="fill:#ffffff;stroke:#000000;stroke-width:0.377953"
       id="path705"
       sodipodi:type="arc"
       sodipodi:cx="151.24026"
       sodipodi:cy="-125.36068"
       sodipodi:rx="2.3110592"
       sodipodi:ry="37.578331"
       sodipodi:start="0.027836256"
       sodipodi:end="6.1871747"
       sodipodi:open="true"
       sodipodi:arc-type="arc"
       d="m 153.55043,-124.31477 a 2.3110592,37.578331 0 0 1 -2.30294,36.532238 2.3110592,37.578331 0 0 1 -2.31694,-36.297458 2.3110592,37.578331 0 0 1 2.15949,-38.77954 2.3110592,37.578331 0 0 1 2.45064,33.89647"
       transform="rotate(50.393063)"
       inkscape:export-filename="/home/micah/Documents/Hack Club Arcade/Planet-Earth-Stranded/Assets/Environment/Textures/Trees/Leaves/pineleaves.png"
       inkscape:export-xdpi="116.99402"
       inkscape:export-ydpi="116.99402" />
    <path
       style="fill:#ffffff;stroke:#000000;stroke-width:0.377953"
       id="path707"
       sodipodi:type="arc"
       sodipodi:cx="105.91286"
       sodipodi:cy="-177.11421"
       sodipodi:rx="2.3110592"
       sodipodi:ry="37.578331"
       sodipodi:start="0.027836256"
       sodipodi:end="6.1871747"
       sodipodi:open="true"
       sodipodi:arc-type="arc"
       d="m 108.22302,-176.06831 a 2.3110592,37.578331 0 0 1 -2.30294,36.53225 2.3110592,37.578331 0 0 1 -2.31694,-36.29746 2.3110592,37.578331 0 0 1 2.15949,-38.77955 2.3110592,37.578331 0 0 1 2.45064,33.89648"
       transform="rotate(73.013923)"
       inkscape:export-filename="/home/micah/Documents/Hack Club Arcade/Planet-Earth-Stranded/Assets/Environment/Textures/Trees/Leaves/pineleaves.png"
       inkscape:export-xdpi="116.99402"
       inkscape:export-ydpi="116.99402" />
    <path
       style="fill:#ffffff;stroke:#000000;stroke-width:0.377953"
       id="path709"
       sodipodi:type="arc"
       sodipodi:cx="-128.82333"
       sodipodi:cy="-197.87129"
       sodipodi:rx="2.3110592"
       sodipodi:ry="37.578331"
       sodipodi:start="0.027836256"
       sodipodi:end="6.1871747"
       sodipodi:open="true"
       sodipodi:arc-type="arc"
       d="m -126.51317,-196.82539 a 2.3110592,37.578331 0 0 1 -2.30294,36.53225 2.3110592,37.578331 0 0 1 -2.31694,-36.29746 2.3110592,37.578331 0 0 1 2.15949,-38.77955 2.3110592,37.578331 0 0 1 2.45064,33.89648"
       transform="rotate(165.4745)"
       inkscape:export-filename="/home/micah/Documents/Hack Club Arcade/Planet-Earth-Stranded/Assets/Environment/Textures/Trees/Leaves/pineleaves.png"
       inkscape:export-xdpi="116.99402"
       inkscape:export-ydpi="116.99402" />
    <path
       style="fill:#ffffff;stroke:#000000;stroke-width:0.377953"
       id="path711"
       sodipodi:type="arc"
       sodipodi:cx="-180.49536"
       sodipodi:cy="-136.32535"
       sodipodi:rx="2.3110592"
       sodipodi:ry="37.578331"
       sodipodi:start="0.027836256"
       sodipodi:end="6.1871747"
       sodipodi:open="true"
       sodipodi:arc-type="arc"
       d="m -178.1852,-135.27944 a 2.3110592,37.578331 0 0 1 -2.30294,36.53224 2.3110592,37.578331 0 0 1 -2.31694,-36.29746 2.3110592,37.578331 0 0 1 2.15949,-38.77954 2.3110592,37.578331 0 0 1 2.45064,33.89647"
       transform="rotate(-171.90464)"
       inkscape:export-filename="/home/micah/Documents/Hack Club Arcade/Planet-Earth-Stranded/Assets/Environment/Textures/Trees/Leaves/pineleaves.png"
       inkscape:export-xdpi="116.99402"
       inkscape:export-ydpi="116.99402" />
    <path
       style="fill:#ffffff;stroke:#000000;stroke-width:0.377953"
       id="path713"
       sodipodi:type="arc"
       sodipodi:cx="-164.12843"
       sodipodi:cy="-132.03981"
       sodipodi:rx="2.3110592"
       sodipodi:ry="37.578331"
       sodipodi:start="0.027836256"
       sodipodi:end="6.1871747"
       sodipodi:open="true"
       sodipodi:arc-type="arc"
       d="m -161.81827,-130.99391 a 2.3110592,37.578331 0 0 1 -2.30294,36.532247 2.3110592,37.578331 0 0 1 -2.31694,-36.297457 2.3110592,37.578331 0 0 1 2.15949,-38.77955 2.3110592,37.578331 0 0 1 2.45064,33.89648"
       transform="rotate(-149.46131)"
       inkscape:export-filename="/home/micah/Documents/Hack Club Arcade/Planet-Earth-Stranded/Assets/Environment/Textures/Trees/Leaves/pineleaves.png"
       inkscape:export-xdpi="116.99402"
       inkscape:export-ydpi="116.99402" />
    <path
       style="fill:#ffffff;stroke:#000000;stroke-width:0.377953"
       id="path715"
       sodipodi:type="arc"
       sodipodi:cx="-187.7636"
       sodipodi:cy="-61.978817"
       sodipodi:rx="2.3110592"
       sodipodi:ry="37.578331"
       sodipodi:start="0.027836256"
       sodipodi:end="6.1871747"
       sodipodi:open="true"
       sodipodi:arc-type="arc"
       d="m -185.45343,-60.932912 a 2.3110592,37.578331 0 0 1 -2.30294,36.532242 2.3110592,37.578331 0 0 1 -2.31694,-36.297456 2.3110592,37.578331 0 0 1 2.15949,-38.779546 2.3110592,37.578331 0 0 1 2.45064,33.896477"
       transform="rotate(-126.84045)"
       inkscape:export-filename="/home/micah/Documents/Hack Club Arcade/Planet-Earth-Stranded/Assets/Environment/Textures/Trees/Leaves/pineleaves.png"
       inkscape:export-xdpi="116.99402"
       inkscape:export-ydpi="116.99402" />
    <path
       style="fill:#ffffff;stroke:#000000;stroke-width:0.377953"
       id="path717"
       sodipodi:type="arc"
       sodipodi:cx="-83.649635"
       sodipodi:cy="216.91254"
       sodipodi:rx="2.3110592"
       sodipodi:ry="37.578331"
       sodipodi:start="0.027836256"
       sodipodi:end="6.1871747"
       sodipodi:open="true"
       sodipodi:arc-type="arc"
       d="m -81.339471,217.95844 a 2.3110592,37.578331 0 0 1 -2.302941,36.53224 2.3110592,37.578331 0 0 1 -2.31694,-36.29745 2.3110592,37.578331 0 0 1 2.159491,-38.77955 2.3110592,37.578331 0 0 1 2.450641,33.89648"
       transform="rotate(-53.722016)"
       inkscape:export-filename="/home/micah/Documents/Hack Club Arcade/Planet-Earth-Stranded/Assets/Environment/Textures/Trees/Leaves/pineleaves.png"
       inkscape:export-xdpi="116.99402"
       inkscape:export-ydpi="116.99402" />
    <path
       style="fill:#ffffff;stroke:#000000;stroke-width:0.377953"
       id="path719"
       sodipodi:type="arc"
       sodipodi:cx="20.742018"
       sodipodi:cy="229.17406"
       sodipodi:rx="2.3110592"
       sodipodi:ry="37.578331"
       sodipodi:start="0.027836256"
       sodipodi:end="6.1871747"
       sodipodi:open="true"
       sodipodi:arc-type="arc"
       d="m 23.052182,230.21996 a 2.3110592,37.578331 0 0 1 -2.302941,36.53224 2.3110592,37.578331 0 0 1 -2.31694,-36.29745 2.3110592,37.578331 0 0 1 2.159491,-38.77955 2.3110592,37.578331 0 0 1 2.450641,33.89648"
       transform="rotate(-31.101156)"
       inkscape:export-filename="/home/micah/Documents/Hack Club Arcade/Planet-Earth-Stranded/Assets/Environment/Textures/Trees/Leaves/pineleaves.png"
       inkscape:export-xdpi="116.99402"
       inkscape:export-ydpi="116.99402" />
    <path
       style="fill:#ffffff;stroke:#000000;stroke-width:0.377953"
       id="path721"
       sodipodi:type="arc"
       sodipodi:cx="-266.45178"
       sodipodi:cy="-105.71581"
       sodipodi:rx="2.3110592"
       sodipodi:ry="37.578331"
       sodipodi:start="0.027836256"
       sodipodi:end="6.1871747"
       sodipodi:open="true"
       sodipodi:arc-type="arc"
       d="m -264.14162,-104.66991 a 2.3110592,37.578331 0 0 1 -2.30294,36.532245 2.3110592,37.578331 0 0 1 -2.31694,-36.297455 2.3110592,37.578331 0 0 1 2.15949,-38.77955 2.3110592,37.578331 0 0 1 2.45064,33.89648"
       transform="rotate(-160.09202)"
       inkscape:export-filename="/home/micah/Documents/Hack Club Arcade/Planet-Earth-Stranded/Assets/Environment/Textures/Trees/Leaves/pineleaves.png"
       inkscape:export-xdpi="116.99402"
       inkscape:export-ydpi="116.99402" />
    <path
       style="fill:#ffffff;stroke:#000000;stroke-width:0.377953"
       id="path723"
       sodipodi:type="arc"
       sodipodi:cx="-272.09024"
       sodipodi:cy="1.6768692"
       sodipodi:rx="2.3110592"
       sodipodi:ry="37.578331"
       sodipodi:start="0.027836256"
       sodipodi:end="6.1871747"
       sodipodi:open="true"
       sodipodi:arc-type="arc"
       d="m -269.78008,2.7227741 a 2.3110592,37.578331 0 0 1 -2.30294,36.5322429 2.3110592,37.578331 0 0 1 -2.31694,-36.2974567 2.3110592,37.578331 0 0 1 2.15949,-38.7795463 2.3110592,37.578331 0 0 1 2.45065,33.8964772"
       transform="rotate(-137.47116)"
       inkscape:export-filename="/home/micah/Documents/Hack Club Arcade/Planet-Earth-Stranded/Assets/Environment/Textures/Trees/Leaves/pineleaves.png"
       inkscape:export-xdpi="116.99402"
       inkscape:export-ydpi="116.99402" />
    <path
       style="fill:#ffffff;stroke:#000000;stroke-width:0.377953"
       id="path725"
       sodipodi:type="arc"
       sodipodi:cx="-102.88366"
       sodipodi:cy="-143.59108"
       sodipodi:rx="2.3110592"
       sodipodi:ry="37.578331"
       sodipodi:start="0.027836256"
       sodipodi:end="6.1871747"
       sodipodi:open="true"
       sodipodi:arc-type="arc"
       d="m -100.5735,-142.54517 a 2.3110592,37.578331 0 0 1 -2.30294,36.53224 2.3110592,37.578331 0 0 1 -2.31694,-36.29746 2.3110592,37.578331 0 0 1 2.15949,-38.77955 2.3110592,37.578331 0 0 1 2.45065,33.89648"
       transform="rotate(-160.09202)"
       inkscape:export-filename="/home/micah/Documents/Hack Club Arcade/Planet-Earth-Stranded/Assets/Environment/Textures/Trees/Leaves/pineleaves.png"
       inkscape:export-xdpi="116.99402"
       inkscape:export-ydpi="116.99402" />
    <path
       style="fill:#ffffff;stroke:#000000;stroke-width:0.377953"
       id="path727"
       sodipodi:type="arc"
       sodipodi:cx="-135.6734"
       sodipodi:cy="-96.198105"
       sodipodi:rx="2.3110592"
       sodipodi:ry="37.578331"
       sodipodi:start="0.027836256"
       sodipodi:end="6.1871747"
       sodipodi:open="true"
       sodipodi:arc-type="arc"
       d="m -133.36324,-95.1522 a 2.3110592,37.578331 0 0 1 -2.30294,36.532243 2.3110592,37.578331 0 0 1 -2.31694,-36.297457 2.3110592,37.578331 0 0 1 2.15949,-38.779546 2.3110592,37.578331 0 0 1 2.45064,33.896477"
       transform="rotate(-137.47116)"
       inkscape:export-filename="/home/micah/Documents/Hack Club Arcade/Planet-Earth-Stranded/Assets/Environment/Textures/Trees/Leaves/pineleaves.png"
       inkscape:export-xdpi="116.99402"
       inkscape:export-ydpi="116.99402" />
    <path
       style="fill:#ffffff;stroke:#000000;stroke-width:0.377953"
       id="path729"
       sodipodi:type="arc"
       sodipodi:cx="86.823235"
       sodipodi:cy="9.2000303"
       sodipodi:rx="2.3110592"
       sodipodi:ry="37.578331"
       sodipodi:start="0.027836256"
       sodipodi:end="6.1871747"
       sodipodi:open="true"
       sodipodi:arc-type="arc"
       d="m 89.133398,10.245935 a 2.3110592,37.578331 0 0 1 -2.30294,36.532243 2.3110592,37.578331 0 0 1 -2.31694,-36.297457 2.3110592,37.578331 0 0 1 2.159491,-38.779546 2.3110592,37.578331 0 0 1 2.450641,33.8964774"
       transform="rotate(22.861996)"
       inkscape:export-filename="/home/micah/Documents/Hack Club Arcade/Planet-Earth-Stranded/Assets/Environment/Textures/Trees/Leaves/pineleaves.png"
       inkscape:export-xdpi="116.99402"
       inkscape:export-ydpi="116.99402" />
    <path
       style="fill:#ffffff;stroke:#000000;stroke-width:0.377953"
       id="path731"
       sodipodi:type="arc"
       sodipodi:cx="98.207649"
       sodipodi:cy="-28.128407"
       sodipodi:rx="2.3110592"
       sodipodi:ry="37.578331"
       sodipodi:start="0.027836256"
       sodipodi:end="6.1871747"
       sodipodi:open="true"
       sodipodi:arc-type="arc"
       d="m 100.51781,-27.082502 a 2.3110592,37.578331 0 0 1 -2.302938,36.5322429 2.3110592,37.578331 0 0 1 -2.316939,-36.2974559 2.3110592,37.578331 0 0 1 2.15949,-38.779547 2.3110592,37.578331 0 0 1 2.450637,33.896478"
       transform="rotate(45.482856)"
       inkscape:export-filename="/home/micah/Documents/Hack Club Arcade/Planet-Earth-Stranded/Assets/Environment/Textures/Trees/Leaves/pineleaves.png"
       inkscape:export-xdpi="116.99402"
       inkscape:export-ydpi="116.99402" />
  </g>
</svg>
